<?xml version="1.0" encoding="UTF-8"?>
<svg width="521px" height="308px" viewBox="0 0 521 308" version="1.1" xmlns="http://www.w3.org/2000/svg" xmlns:xlink="http://www.w3.org/1999/xlink">
    <title>Design thinking 1</title>
    <g id="Design-thinking-1" stroke="none" stroke-width="1" fill="none" fill-rule="evenodd">
        <circle id="Oval" fill="#FFFAE5" cx="199.536036" cy="198.666667" r="89.3333333"></circle>
        <circle id="Oval-Copy" fill="#FFFAE5" cx="321.463964" cy="198.666667" r="89.3333333"></circle>
        <circle id="Oval" fill="#FFFAE5" cx="259.896396" cy="109.333333" r="89.3333333"></circle>
        <path d="M260.501373,133.369419 C277.957191,149.674133 288.869369,172.896062 288.869369,198.666667 C288.869369,224.437271 277.957191,247.6592 260.501373,263.963914 C243.042906,247.659406 232.130631,224.437386 232.130631,198.666667 C232.130631,173.011199 242.945521,149.881684 260.265054,133.58837 Z" id="Combined-Shape" fill="#F5FCFF"></path>
        <path d="M199.536036,109.333333 C247.275414,109.333333 286.268602,146.780223 288.744527,193.90293 C279.693928,196.992444 269.99068,198.666667 259.896396,198.666667 C212.156761,198.666667 173.16341,161.219373 170.687865,114.096308 C179.739278,111.007423 189.442155,109.333333 199.536036,109.333333 Z" id="Combined-Shape" fill="#F5FCFF"></path>
        <path d="M321.463964,109.333333 C331.119108,109.333333 340.4165,110.865055 349.126398,113.698757 C346.846843,161.010178 307.769192,198.666667 259.896396,198.666667 C250.241411,198.666667 240.944166,197.134996 232.234393,194.301383 C234.51295,146.990369 273.590821,109.333333 321.463964,109.333333 Z" id="Combined-Shape" fill="#F5FCFF"></path>
        <path d="M260.50114,133.369202 C276.874638,148.66286 287.490852,170.04252 288.744527,193.90293 C279.693541,196.992511 269.990479,198.666667 259.896396,198.666667 C250.241411,198.666667 240.944166,197.134996 232.234393,194.301383 C233.386347,170.393218 243.934039,148.951738 260.265054,133.58837 Z" id="Combined-Shape" fill="#F5FFE3"></path>
        <path d="M199.536036,109.333333 C248.873474,109.333333 288.869369,149.329229 288.869369,198.666667 C288.869369,248.004104 248.873474,288 199.536036,288 C150.198598,288 110.202703,248.004104 110.202703,198.666667 C110.202703,149.329229 150.198598,109.333333 199.536036,109.333333 Z M199.536036,110.333333 C150.750883,110.333333 111.202703,149.881514 111.202703,198.666667 C111.202703,247.45182 150.750883,287 199.536036,287 C248.321189,287 287.869369,247.45182 287.869369,198.666667 C287.869369,149.881514 248.321189,110.333333 199.536036,110.333333 Z" id="Oval" fill="#10162F" fill-rule="nonzero"></path>
        <path d="M321.463964,109.333333 C370.801402,109.333333 410.797297,149.329229 410.797297,198.666667 C410.797297,248.004104 370.801402,288 321.463964,288 C272.126526,288 232.130631,248.004104 232.130631,198.666667 C232.130631,149.329229 272.126526,109.333333 321.463964,109.333333 Z M321.463964,110.333333 C272.678811,110.333333 233.130631,149.881514 233.130631,198.666667 C233.130631,247.45182 272.678811,287 321.463964,287 C370.249117,287 409.797297,247.45182 409.797297,198.666667 C409.797297,149.881514 370.249117,110.333333 321.463964,110.333333 Z" id="Oval-Copy" fill="#10162F" fill-rule="nonzero"></path>
        <path d="M259.896396,20 C309.233834,20 349.22973,59.9958957 349.22973,109.333333 C349.22973,158.670771 309.233834,198.666667 259.896396,198.666667 C210.558959,198.666667 170.563063,158.670771 170.563063,109.333333 C170.563063,59.9958957 210.558959,20 259.896396,20 Z M259.896396,21 C211.111243,21 171.563063,60.5481804 171.563063,109.333333 C171.563063,158.118486 211.111243,197.666667 259.896396,197.666667 C308.681549,197.666667 348.22973,158.118486 348.22973,109.333333 C348.22973,60.5481804 308.681549,21 259.896396,21 Z" id="Oval" fill="#10162F" fill-rule="nonzero"></path>
        <path d="M260.501373,133.369419 C277.957191,149.674133 288.869369,172.896062 288.869369,198.666667 C288.869369,224.437271 277.957191,247.6592 260.501373,263.963914 C243.042906,247.659406 232.130631,224.437386 232.130631,198.666667 C232.130631,173.011199 242.945521,149.881684 260.265054,133.58837 L260.501373,133.369419 Z M260.876204,135.104164 L260.499,134.744 L260.423431,134.816376 C243.11224,151.368587 233.130631,174.218242 233.130631,198.666667 C233.130631,222.977562 243.000762,245.704862 260.126364,262.229164 L260.501,262.588 L260.876204,262.229169 C277.825169,245.872673 287.667196,223.439853 287.866289,199.410351 L287.869369,198.666667 C287.869369,174.356658 277.999901,151.629284 260.876204,135.104164 Z" id="Combined-Shape" fill="#10162F" fill-rule="nonzero"></path>
        <path d="M199.536036,109.333333 C247.275414,109.333333 286.268602,146.780223 288.744527,193.90293 C279.693928,196.992444 269.99068,198.666667 259.896396,198.666667 C212.156761,198.666667 173.16341,161.219373 170.687865,114.096308 C179.739278,111.007423 189.442155,109.333333 199.536036,109.333333 Z M199.536036,110.333333 C190.041327,110.333333 180.753651,111.831298 171.922739,114.737098 L171.732,114.801 L171.771048,115.44391 C174.886898,161.080403 212.563088,196.935939 258.487984,197.655637 L259.896396,197.666667 C269.391898,197.666667 278.679948,196.168449 287.509694,193.262215 L287.7,193.198 L287.661334,192.555346 C284.545122,146.919177 246.869065,111.064052 200.944441,110.344362 L199.536036,110.333333 Z" id="Combined-Shape" fill="#10162F" fill-rule="nonzero"></path>
        <path d="M321.463964,109.333333 C331.119108,109.333333 340.4165,110.865055 349.126398,113.698757 C346.846843,161.010178 307.769192,198.666667 259.896396,198.666667 C250.241411,198.666667 240.944166,197.134996 232.234393,194.301383 C234.51295,146.990369 273.590821,109.333333 321.463964,109.333333 Z M321.463964,110.333333 C274.758881,110.333333 236.270675,146.670644 233.311989,192.944244 L233.275,193.584 L233.451105,193.640194 C241.63117,196.203546 250.187799,197.567294 258.924877,197.661435 L259.896396,197.666667 C306.601173,197.666667 345.089132,161.329852 348.048774,115.055886 L348.084,114.415 L347.909668,114.359936 C339.729484,111.796502 331.172719,110.432709 322.435499,110.338565 L321.463964,110.333333 Z" id="Combined-Shape" fill="#10162F" fill-rule="nonzero"></path>
        <path d="M260.50114,133.369202 C276.874638,148.66286 287.490852,170.04252 288.744527,193.90293 C279.693541,196.992511 269.990479,198.666667 259.896396,198.666667 C250.241411,198.666667 240.944166,197.134996 232.234393,194.301383 C233.386347,170.393218 243.934039,148.951738 260.265054,133.58837 L260.50114,133.369202 Z M260.859015,135.087605 L260.499,134.743 L260.429065,134.810994 C244.512822,150.027113 234.754848,170.616413 233.315301,192.894251 L233.273,193.583 L233.451105,193.640194 C241.63117,196.203546 250.187799,197.567294 258.924877,197.661435 L259.896396,197.666667 C269.391782,197.666667 278.679649,196.168487 287.50967,193.262216 L287.702,193.197 L287.65765,192.502721 C286.140416,170.506586 276.507634,150.181865 260.859015,135.087605 Z" id="Combined-Shape" fill="#10162F" fill-rule="nonzero"></path>
        <g id="Desirability" transform="translate(208.052000, 70.850000)" fill="#10162F" fill-rule="nonzero">
            <path d="M5.586,5.068 C5.586,8.512 3.584,8.89 1.694,8.89 L1.33,8.89 L1.33,1.26 L1.694,1.26 C3.584,1.26 5.586,1.61 5.586,5.068 Z M-2.27373675e-13,0 L-2.27373675e-13,10.15 L1.736,10.15 C4.62,10.15 6.944,8.932 6.944,5.068 C6.944,1.19 4.62,0 1.736,0 L-2.27373675e-13,0 Z" id="Shape"></path>
            <path d="M12.292,10.332 C14.056,10.332 15.232,9.324 15.54,7.896 L14.21,7.896 C13.944,8.75 13.384,9.282 12.264,9.282 C11.074,9.282 10.234,8.288 10.234,6.776 L15.652,6.776 C15.75,4.088 14.49,2.478 12.292,2.478 C10.304,2.478 8.876,3.99 8.876,6.412 C8.876,8.638 10.01,10.332 12.292,10.332 Z M12.292,3.542 C13.608,3.542 14.294,4.48 14.28,5.712 L10.248,5.712 C10.304,4.256 11.074,3.542 12.292,3.542 Z" id="Shape"></path>
            <path d="M24.192,4.676 C23.912,3.332 22.82,2.492 21.224,2.492 C19.964,2.492 18.382,3.122 18.382,4.578 C18.382,5.88 19.32,6.468 20.51,6.706 L21.448,6.888 C22.4,7.056 23.03,7.406 23.03,8.106 C23.03,8.988 22.148,9.268 21.35,9.268 C20.3,9.268 19.768,8.764 19.6,7.896 L18.242,7.896 C18.382,9.1 19.362,10.332 21.322,10.332 C22.96,10.332 24.332,9.548 24.332,7.952 C24.332,6.44 22.932,5.95 21.63,5.698 L20.79,5.53 C20.048,5.376 19.656,5.11 19.656,4.522 C19.656,3.85 20.412,3.556 21.168,3.556 C22.022,3.556 22.68,3.836 22.848,4.676 L24.192,4.676 Z" id="Path"></path>
            <path d="M29.82,0 L29.82,1.526 L31.108,1.526 L31.108,0 L29.82,0 Z M27.692,2.618 L27.692,3.724 L29.82,3.724 L29.82,9.044 L27.692,9.044 L27.692,10.15 L33.25,10.15 L33.25,9.044 L31.108,9.044 L31.108,2.618 L27.692,2.618 Z" id="Shape"></path>
            <path d="M36.064,2.618 L36.064,3.724 L38.206,3.724 L38.206,9.044 L36.078,9.044 L36.078,10.15 L42.07,10.15 L42.07,9.044 L39.494,9.044 L39.494,6.398 C39.494,4.746 40.054,3.794 41.496,3.794 L42.77,3.794 L42.77,2.618 L41.482,2.618 C40.558,2.618 39.83,3.122 39.466,3.962 L39.466,2.618 L36.064,2.618 Z" id="Path"></path>
            <path d="M47.67,10.332 C49.07,10.332 49.854,9.828 50.316,9.044 L50.33,10.15 L51.562,10.15 C51.52,9.646 51.45,8.568 51.464,7.308 L51.478,5.474 C51.506,3.388 50.61,2.464 48.524,2.464 C46.956,2.464 45.528,3.374 45.402,4.998 L46.718,4.998 C46.802,4.074 47.348,3.5 48.51,3.5 C49.49,3.5 50.204,3.892 50.204,5.194 L50.204,5.516 C47.124,5.852 45.22,6.398 45.22,8.19 C45.22,9.548 46.312,10.332 47.67,10.332 Z M50.302,6.748 C50.302,8.75 49.182,9.296 48.034,9.296 C47.124,9.296 46.606,8.876 46.606,8.162 C46.606,7.084 48.006,6.762 50.302,6.538 L50.302,6.748 Z" id="Shape"></path>
            <path d="M55.776,0 L54.488,0 L54.488,10.15 L55.762,10.15 L55.776,9.086 C56.21,9.8 56.882,10.332 58.016,10.332 C59.738,10.332 61.04,8.904 61.04,6.412 C61.04,3.934 59.738,2.492 58.016,2.492 C56.882,2.492 56.21,3.024 55.776,3.752 L55.776,0 Z M55.72,6.412 C55.72,4.424 56.672,3.57 57.736,3.57 C59.038,3.57 59.682,4.62 59.682,6.412 C59.682,8.204 59.038,9.268 57.736,9.268 C56.672,9.268 55.72,8.4 55.72,6.412 Z" id="Shape"></path>
            <path d="M65.996,0 L65.996,1.526 L67.284,1.526 L67.284,0 L65.996,0 Z M63.868,2.618 L63.868,3.724 L65.996,3.724 L65.996,9.044 L63.868,9.044 L63.868,10.15 L69.426,10.15 L69.426,9.044 L67.284,9.044 L67.284,2.618 L63.868,2.618 Z" id="Shape"></path>
            <polygon id="Path" points="72.828 0 72.828 1.092 74.956 1.092 74.956 9.044 72.828 9.044 72.828 10.15 78.386 10.15 78.386 9.044 76.244 9.044 76.244 0"></polygon>
            <path d="M84.084,0 L84.084,1.526 L85.372,1.526 L85.372,0 L84.084,0 Z M81.956,2.618 L81.956,3.724 L84.084,3.724 L84.084,9.044 L81.956,9.044 L81.956,10.15 L87.514,10.15 L87.514,9.044 L85.372,9.044 L85.372,2.618 L81.956,2.618 Z" id="Shape"></path>
            <path d="M91.882,2.618 L89.74,2.618 L89.74,3.724 L91.882,3.724 L91.882,8.26 C91.882,9.828 92.274,10.15 93.646,10.15 L96.25,10.15 L96.25,9.044 L93.926,9.044 C93.212,9.044 93.17,8.848 93.17,8.078 L93.17,3.724 L96.25,3.724 L96.25,2.618 L93.17,2.618 L93.17,0.728 L91.882,0.728 L91.882,2.618 Z" id="Path"></path>
            <path d="M100.73,12.6 C102.326,12.6 102.746,11.956 103.278,10.472 L106.064,2.618 L104.734,2.618 L102.732,8.428 L100.688,2.618 L99.274,2.618 L102.088,10.15 L102.032,10.318 C101.64,11.396 101.388,11.494 100.604,11.494 L99.246,11.494 L99.246,12.6 L100.73,12.6 Z" id="Path"></path>
        </g>
        <g id="Viability" transform="translate(134.288806, 207.850000)" fill="#10162F" fill-rule="nonzero">
            <polygon id="Path" points="3.192 10.15 4.606 10.15 7.798 5.68434189e-14 6.37 5.68434189e-14 3.892 8.372 1.428 5.68434189e-14 0 5.68434189e-14"></polygon>
            <path d="M12.432,5.68434189e-14 L12.432,1.526 L13.72,1.526 L13.72,5.68434189e-14 L12.432,5.68434189e-14 Z M10.304,2.618 L10.304,3.724 L12.432,3.724 L12.432,9.044 L10.304,9.044 L10.304,10.15 L15.862,10.15 L15.862,9.044 L13.72,9.044 L13.72,2.618 L10.304,2.618 Z" id="Shape"></path>
            <path d="M21.238,10.332 C22.638,10.332 23.422,9.828 23.884,9.044 L23.898,10.15 L25.13,10.15 C25.088,9.646 25.018,8.568 25.032,7.308 L25.046,5.474 C25.074,3.388 24.178,2.464 22.092,2.464 C20.524,2.464 19.096,3.374 18.97,4.998 L20.286,4.998 C20.37,4.074 20.916,3.5 22.078,3.5 C23.058,3.5 23.772,3.892 23.772,5.194 L23.772,5.516 C20.692,5.852 18.788,6.398 18.788,8.19 C18.788,9.548 19.88,10.332 21.238,10.332 Z M23.87,6.748 C23.87,8.75 22.75,9.296 21.602,9.296 C20.692,9.296 20.174,8.876 20.174,8.162 C20.174,7.084 21.574,6.762 23.87,6.538 L23.87,6.748 Z" id="Shape"></path>
            <path d="M29.344,5.68434189e-14 L28.056,5.68434189e-14 L28.056,10.15 L29.33,10.15 L29.344,9.086 C29.778,9.8 30.45,10.332 31.584,10.332 C33.306,10.332 34.608,8.904 34.608,6.412 C34.608,3.934 33.306,2.492 31.584,2.492 C30.45,2.492 29.778,3.024 29.344,3.752 L29.344,5.68434189e-14 Z M29.288,6.412 C29.288,4.424 30.24,3.57 31.304,3.57 C32.606,3.57 33.25,4.62 33.25,6.412 C33.25,8.204 32.606,9.268 31.304,9.268 C30.24,9.268 29.288,8.4 29.288,6.412 Z" id="Shape"></path>
            <path d="M39.564,5.68434189e-14 L39.564,1.526 L40.852,1.526 L40.852,5.68434189e-14 L39.564,5.68434189e-14 Z M37.436,2.618 L37.436,3.724 L39.564,3.724 L39.564,9.044 L37.436,9.044 L37.436,10.15 L42.994,10.15 L42.994,9.044 L40.852,9.044 L40.852,2.618 L37.436,2.618 Z" id="Shape"></path>
            <polygon id="Path" points="46.396 5.68434189e-14 46.396 1.092 48.524 1.092 48.524 9.044 46.396 9.044 46.396 10.15 51.954 10.15 51.954 9.044 49.812 9.044 49.812 5.68434189e-14"></polygon>
            <path d="M57.652,5.68434189e-14 L57.652,1.526 L58.94,1.526 L58.94,5.68434189e-14 L57.652,5.68434189e-14 Z M55.524,2.618 L55.524,3.724 L57.652,3.724 L57.652,9.044 L55.524,9.044 L55.524,10.15 L61.082,10.15 L61.082,9.044 L58.94,9.044 L58.94,2.618 L55.524,2.618 Z" id="Shape"></path>
            <path d="M65.45,2.618 L63.308,2.618 L63.308,3.724 L65.45,3.724 L65.45,8.26 C65.45,9.828 65.842,10.15 67.214,10.15 L69.818,10.15 L69.818,9.044 L67.494,9.044 C66.78,9.044 66.738,8.848 66.738,8.078 L66.738,3.724 L69.818,3.724 L69.818,2.618 L66.738,2.618 L66.738,0.728 L65.45,0.728 L65.45,2.618 Z" id="Path"></path>
            <path d="M74.298,12.6 C75.894,12.6 76.314,11.956 76.846,10.472 L79.632,2.618 L78.302,2.618 L76.3,8.428 L74.256,2.618 L72.842,2.618 L75.656,10.15 L75.6,10.318 C75.208,11.396 74.956,11.494 74.172,11.494 L72.814,11.494 L72.814,12.6 L74.298,12.6 Z" id="Path"></path>
        </g>
        <g id="Feasibility" transform="translate(299.448806, 207.850000)" fill="#10162F" fill-rule="nonzero">
            <polygon id="Path" points="0 10.15 1.33 10.15 1.33 5.544 5.978 5.544 5.978 4.284 1.33 4.284 1.33 1.26 6.244 1.26 6.244 5.68434189e-14 0 5.68434189e-14"></polygon>
            <path d="M11.788,10.332 C13.552,10.332 14.728,9.324 15.036,7.896 L13.706,7.896 C13.44,8.75 12.88,9.282 11.76,9.282 C10.57,9.282 9.73,8.288 9.73,6.776 L15.148,6.776 C15.246,4.088 13.986,2.478 11.788,2.478 C9.8,2.478 8.372,3.99 8.372,6.412 C8.372,8.638 9.506,10.332 11.788,10.332 Z M11.788,3.542 C13.104,3.542 13.79,4.48 13.776,5.712 L9.744,5.712 C9.8,4.256 10.57,3.542 11.788,3.542 Z" id="Shape"></path>
            <path d="M20.034,10.332 C21.434,10.332 22.218,9.828 22.68,9.044 L22.694,10.15 L23.926,10.15 C23.884,9.646 23.814,8.568 23.828,7.308 L23.842,5.474 C23.87,3.388 22.974,2.464 20.888,2.464 C19.32,2.464 17.892,3.374 17.766,4.998 L19.082,4.998 C19.166,4.074 19.712,3.5 20.874,3.5 C21.854,3.5 22.568,3.892 22.568,5.194 L22.568,5.516 C19.488,5.852 17.584,6.398 17.584,8.19 C17.584,9.548 18.676,10.332 20.034,10.332 Z M22.666,6.748 C22.666,8.75 21.546,9.296 20.398,9.296 C19.488,9.296 18.97,8.876 18.97,8.162 C18.97,7.084 20.37,6.762 22.666,6.538 L22.666,6.748 Z" id="Shape"></path>
            <path d="M32.732,4.676 C32.452,3.332 31.36,2.492 29.764,2.492 C28.504,2.492 26.922,3.122 26.922,4.578 C26.922,5.88 27.86,6.468 29.05,6.706 L29.988,6.888 C30.94,7.056 31.57,7.406 31.57,8.106 C31.57,8.988 30.688,9.268 29.89,9.268 C28.84,9.268 28.308,8.764 28.14,7.896 L26.782,7.896 C26.922,9.1 27.902,10.332 29.862,10.332 C31.5,10.332 32.872,9.548 32.872,7.952 C32.872,6.44 31.472,5.95 30.17,5.698 L29.33,5.53 C28.588,5.376 28.196,5.11 28.196,4.522 C28.196,3.85 28.952,3.556 29.708,3.556 C30.562,3.556 31.22,3.836 31.388,4.676 L32.732,4.676 Z" id="Path"></path>
            <path d="M38.36,5.68434189e-14 L38.36,1.526 L39.648,1.526 L39.648,5.68434189e-14 L38.36,5.68434189e-14 Z M36.232,2.618 L36.232,3.724 L38.36,3.724 L38.36,9.044 L36.232,9.044 L36.232,10.15 L41.79,10.15 L41.79,9.044 L39.648,9.044 L39.648,2.618 L36.232,2.618 Z" id="Shape"></path>
            <path d="M46.228,5.68434189e-14 L44.94,5.68434189e-14 L44.94,10.15 L46.214,10.15 L46.228,9.086 C46.662,9.8 47.334,10.332 48.468,10.332 C50.19,10.332 51.492,8.904 51.492,6.412 C51.492,3.934 50.19,2.492 48.468,2.492 C47.334,2.492 46.662,3.024 46.228,3.752 L46.228,5.68434189e-14 Z M46.172,6.412 C46.172,4.424 47.124,3.57 48.188,3.57 C49.49,3.57 50.134,4.62 50.134,6.412 C50.134,8.204 49.49,9.268 48.188,9.268 C47.124,9.268 46.172,8.4 46.172,6.412 Z" id="Shape"></path>
            <path d="M56.448,5.68434189e-14 L56.448,1.526 L57.736,1.526 L57.736,5.68434189e-14 L56.448,5.68434189e-14 Z M54.32,2.618 L54.32,3.724 L56.448,3.724 L56.448,9.044 L54.32,9.044 L54.32,10.15 L59.878,10.15 L59.878,9.044 L57.736,9.044 L57.736,2.618 L54.32,2.618 Z" id="Shape"></path>
            <polygon id="Path" points="63.28 5.68434189e-14 63.28 1.092 65.408 1.092 65.408 9.044 63.28 9.044 63.28 10.15 68.838 10.15 68.838 9.044 66.696 9.044 66.696 5.68434189e-14"></polygon>
            <path d="M74.536,5.68434189e-14 L74.536,1.526 L75.824,1.526 L75.824,5.68434189e-14 L74.536,5.68434189e-14 Z M72.408,2.618 L72.408,3.724 L74.536,3.724 L74.536,9.044 L72.408,9.044 L72.408,10.15 L77.966,10.15 L77.966,9.044 L75.824,9.044 L75.824,2.618 L72.408,2.618 Z" id="Shape"></path>
            <path d="M82.334,2.618 L80.192,2.618 L80.192,3.724 L82.334,3.724 L82.334,8.26 C82.334,9.828 82.726,10.15 84.098,10.15 L86.702,10.15 L86.702,9.044 L84.378,9.044 C83.664,9.044 83.622,8.848 83.622,8.078 L83.622,3.724 L86.702,3.724 L86.702,2.618 L83.622,2.618 L83.622,0.728 L82.334,0.728 L82.334,2.618 Z" id="Path"></path>
            <path d="M91.182,12.6 C92.778,12.6 93.198,11.956 93.73,10.472 L96.516,2.618 L95.186,2.618 L93.184,8.428 L91.14,2.618 L89.726,2.618 L92.54,10.15 L92.484,10.318 C92.092,11.396 91.84,11.494 91.056,11.494 L89.698,11.494 L89.698,12.6 L91.182,12.6 Z" id="Path"></path>
        </g>
    </g>
</svg>